<svg width="24" height="24" viewBox="0 0 24 24" fill="none" xmlns="http://www.w3.org/2000/svg">
<g clip-path="url(#clip0_2344_2017)">
<path d="M20.9066 5.33325H18.3333V6.66659H20.6666V19.9999H18.3333V21.3333H21.9999V6.44659C22.0017 6.30157 21.9747 6.15764 21.9207 6.02308C21.8666 5.88851 21.7864 5.76597 21.6848 5.6625C21.5832 5.55902 21.4621 5.47667 21.3286 5.42016C21.195 5.36366 21.0516 5.33412 20.9066 5.33325Z" fill="white"/>
<path d="M3.33341 6.66659H5.66675V5.33325H3.09341C2.94839 5.33412 2.80498 5.36366 2.67141 5.42016C2.53785 5.47667 2.41678 5.55902 2.31517 5.6625C2.21355 5.76597 2.1334 5.88851 2.07933 6.02308C2.02525 6.15764 1.99832 6.30157 2.00008 6.44659V21.3333H5.66675V19.9999H3.33341V6.66659Z" fill="white"/>
<path d="M12.0066 18.52C12.6694 18.52 13.2066 17.9857 13.2066 17.3266C13.2066 16.6676 12.6694 16.1333 12.0066 16.1333C11.3439 16.1333 10.8066 16.6676 10.8066 17.3266C10.8066 17.9857 11.3439 18.52 12.0066 18.52Z" fill="white"/>
<path d="M16.2134 2.66675H7.78675C7.48971 2.66675 7.20483 2.78475 6.99479 2.99479C6.78475 3.20483 6.66675 3.48971 6.66675 3.78675V21.3334H17.3334V3.78675C17.3334 3.48971 17.2154 3.20483 17.0054 2.99479C16.7953 2.78475 16.5105 2.66675 16.2134 2.66675ZM16.0001 20.0001H8.00008V4.00008H16.0001V20.0001Z" fill="white"/>
<path d="M9 6.13989H15V7.20656H9V6.13989Z" fill="white"/>
</g>
<defs>
<clipPath id="clip0_2344_2017">
<rect width="24" height="24" fill="white"/>
</clipPath>
</defs>
</svg>
