<svg width="24" height="24" viewBox="0 0 24 24" fill="none" xmlns="http://www.w3.org/2000/svg">
<path d="M12 4.7999C11.3635 4.7999 10.7531 5.05276 10.303 5.50285C9.85291 5.95293 9.60005 6.56338 9.60005 7.1999C9.60005 7.83642 9.85291 8.44687 10.303 8.89696C10.7531 9.34705 11.3635 9.5999 12 9.5999C12.6366 9.5999 13.247 9.34705 13.6971 8.89696C14.1472 8.44687 14.4 7.83642 14.4 7.1999C14.4 6.56338 14.1472 5.95293 13.6971 5.50285C13.247 5.05276 12.6366 4.7999 12 4.7999ZM7.80005 17.3999C7.64092 17.3999 7.48831 17.4631 7.37578 17.5756C7.26326 17.6882 7.20005 17.8408 7.20005 17.9999C7.20005 18.159 7.26326 18.3116 7.37578 18.4242C7.48831 18.5367 7.64092 18.5999 7.80005 18.5999H16.2C16.3592 18.5999 16.5118 18.5367 16.6243 18.4242C16.7368 18.3116 16.8 18.159 16.8 17.9999C16.8 17.8408 16.7368 17.6882 16.6243 17.5756C16.5118 17.4631 16.3592 17.3999 16.2 17.3999H7.80005ZM4.80005 4.7999C4.80005 4.16338 5.05291 3.55293 5.50299 3.10285C5.95308 2.65276 6.56353 2.3999 7.20005 2.3999H16.8C17.4366 2.3999 18.047 2.65276 18.4971 3.10285C18.9472 3.55293 19.2 4.16338 19.2 4.7999V19.1999C19.2 19.8364 18.9472 20.4469 18.4971 20.897C18.047 21.347 17.4366 21.5999 16.8 21.5999H7.20005C6.56353 21.5999 5.95308 21.347 5.50299 20.897C5.05291 20.4469 4.80005 19.8364 4.80005 19.1999V4.7999ZM16.8 3.5999H7.20005C6.88179 3.5999 6.57656 3.72633 6.35152 3.95137C6.12648 4.17642 6.00005 4.48164 6.00005 4.7999V14.3999H8.40005V11.9999C8.40005 11.6816 8.52648 11.3764 8.75152 11.1514C8.97656 10.9263 9.28179 10.7999 9.60005 10.7999H14.4C14.7183 10.7999 15.0235 10.9263 15.2486 11.1514C15.4736 11.3764 15.6 11.6816 15.6 11.9999V14.3999H18V4.7999C18 4.48164 17.8736 4.17642 17.6486 3.95137C17.4235 3.72633 17.1183 3.5999 16.8 3.5999ZM6.00005 15.5999V19.1999C6.00005 19.5182 6.12648 19.8234 6.35152 20.0484C6.57656 20.2735 6.88179 20.3999 7.20005 20.3999H16.8C17.1183 20.3999 17.4235 20.2735 17.6486 20.0484C17.8736 19.8234 18 19.5182 18 19.1999V15.5999H6.00005Z" fill="white"/>
</svg>
