<svg width="24" height="24" viewBox="0 0 24 24" fill="none" xmlns="http://www.w3.org/2000/svg">
<path d="M6.57796 15.482C5.16296 16.324 1.45296 18.044 3.71296 20.197C4.81596 21.248 6.04496 22 7.58996 22H16.408C17.954 22 19.183 21.248 20.286 20.197C22.546 18.044 18.836 16.324 17.421 15.482C15.7788 14.5119 13.9063 14.0001 11.999 14.0001C10.0916 14.0001 8.22017 14.5119 6.57796 15.482ZM16.5 6.5C16.5 7.69347 16.0259 8.83807 15.1819 9.68198C14.338 10.5259 13.1934 11 12 11C10.8065 11 9.66189 10.5259 8.81798 9.68198C7.97407 8.83807 7.49996 7.69347 7.49996 6.5C7.49996 5.30653 7.97407 4.16193 8.81798 3.31802C9.66189 2.47411 10.8065 2 12 2C13.1934 2 14.338 2.47411 15.1819 3.31802C16.0259 4.16193 16.5 5.30653 16.5 6.5Z" stroke="#AAAAAA" stroke-width="1.5" stroke-linecap="round" stroke-linejoin="round"/>
</svg>
